<?xml version="1.0" encoding="UTF-8" standalone="no"?>
<!-- Created with Inkscape (http://www.inkscape.org/) -->

<svg
   xmlns:dc="http://purl.org/dc/elements/1.1/"
   xmlns:cc="http://creativecommons.org/ns#"
   xmlns:rdf="http://www.w3.org/1999/02/22-rdf-syntax-ns#"
   xmlns:svg="http://www.w3.org/2000/svg"
   xmlns="http://www.w3.org/2000/svg"
   xmlns:inkscape="http://www.inkscape.org/namespaces/inkscape"
   version="1.1"
   width="887"
   height="381"
   id="svg3107">
  <title
     id="title3144">Darwin Fish</title>
  <defs
     id="defs3109">
    <inkscape:path-effect
       effect="envelope"
       id="path-effect3084" />
    <inkscape:path-effect
       effect="envelope"
       id="path-effect3084-9" />
  </defs>
  <metadata
     id="metadata3112">
    <rdf:RDF>
      <cc:Work
         rdf:about="">
        <dc:format>image/svg+xml</dc:format>
        <dc:type
           rdf:resource="http://purl.org/dc/dcmitype/StillImage" />
        <dc:title>Darwin Fish</dc:title>
        <dc:date>2013-11-09</dc:date>
        <dc:subject>
          <rdf:Bag>
            <rdf:li>darwin fish</rdf:li>
          </rdf:Bag>
        </dc:subject>
        <dc:rights>
          <cc:Agent>
            <dc:title></dc:title>
          </cc:Agent>
        </dc:rights>
        <cc:license
           rdf:resource="http://creativecommons.org/licenses/publicdomain/" />
      </cc:Work>
      <cc:License
         rdf:about="http://creativecommons.org/licenses/publicdomain/">
        <cc:permits
           rdf:resource="http://creativecommons.org/ns#Reproduction" />
        <cc:permits
           rdf:resource="http://creativecommons.org/ns#Distribution" />
        <cc:permits
           rdf:resource="http://creativecommons.org/ns#DerivativeWorks" />
      </cc:License>
    </rdf:RDF>
  </metadata>
  <g
     transform="translate(-10.553978,-680.0516)"
     id="layer1">
    <path
       d="M 29.053978,1018.2659 C 230.42829,669.47539 622.18885,608.82119 878.77278,865.40512 623.9631,1120.2148 230.88483,1057.0907 29.430909,708.16229 l 14.186702,-9.60046 C 242.52314,1043.0763 625.11583,1098.9898 858.3397,865.76595 624.26358,631.68983 246.22589,682.23269 46.426241,1028.2958 z"
       id="path3017"
       style="fill:#000000;fill-opacity:1;fill-rule:nonzero;stroke:#000000;stroke-width:5;stroke-linecap:butt;stroke-linejoin:miter;stroke-miterlimit:4;stroke-opacity:1;stroke-dasharray:none;marker-mid:none" />
    <path
       d="m 315.28077,979.19312 c -11.76625,31.98688 -7.64932,53.95238 -4.79822,63.35848 l 67.14286,0 c 15.53025,0 15.31632,-19.2857 0,-19.2857 -29.07147,0 -58.08725,-5.7031 -41.03118,-35.24508 z"
       id="path5954"
       style="fill:#000000;fill-opacity:1;stroke:#000000;stroke-width:5;stroke-linecap:round;stroke-linejoin:round;stroke-miterlimit:4;stroke-opacity:1;stroke-dasharray:none" />
    <path
       d="m 664.02308,987.69462 c -11.76625,25.79968 -7.77559,44.98728 -4.92449,54.39338 l 67.14286,0 c 15.53025,0 15.31632,-19.2857 0,-19.2857 -29.07147,0 -58.08725,-5.7031 -41.03118,-35.24508 z"
       id="path5954-7"
       style="fill:#000000;fill-opacity:1;stroke:#000000;stroke-width:5;stroke-linecap:round;stroke-linejoin:round;stroke-miterlimit:4;stroke-opacity:1;stroke-dasharray:none" />
    <g
       transform="matrix(1.5190507,0,0,1.3606463,-46.976043,-347.30867)"
       id="flowRoot5984-6-1"
       style="font-size:144px;font-style:normal;font-variant:normal;font-weight:normal;font-stretch:normal;line-height:125%;letter-spacing:0px;word-spacing:0px;fill:#000000;fill-opacity:1;stroke:none;font-family:MisterEarl BT;-inkscape-font-specification:MisterEarl BT">
      <path
         d="m 224.75387,944.43456 c 0.76153,-1.24972 1.78283,-3.0745 2.8456,-5.5034 1.50162,-3.42968 2.49725,-6.67189 3.21751,-9.70728 0.72025,-3.03538 1.16167,-5.86248 1.45708,-8.45561 0.32288,-2.845 0.47202,-5.40179 0.55008,-7.64988 0.0781,-2.24809 0.0828,-4.18766 0.0631,-5.80871 -0.0581,-4.78 -0.31234,-9.39454 -0.62063,-13.79192 -0.0335,-0.47768 -0.0678,-0.95279 -0.10276,-1.42529 -0.34856,-4.68283 -0.74223,-9.1033 -1.15629,-13.2684 -0.41406,-4.16511 -0.85297,-8.07578 -1.36774,-11.74793 -0.77929,-5.55915 -1.73675,-10.51731 -3.05764,-14.91991 -1.32088,-4.4026 -3.01437,-8.24922 -5.0352,-11.54742 2.72555,-3.09481 5.42691,-5.80925 8.24856,-8.11594 2.82176,-2.30646 5.79064,-4.21486 8.98195,-5.66523 0.31913,-0.14502 0.63824,-0.28974 0.95732,-0.43417 1.15787,2.52766 2.06718,5.01558 2.7934,7.48181 0.69107,-1.48431 1.51069,-2.76832 2.49934,-3.83815 0.9887,-1.06958 2.22829,-1.92735 3.73882,-2.55104 3.36444,-1.38879 6.88822,-1.49095 10.37084,-0.21512 3.48263,1.27584 6.89006,3.91559 9.81934,7.9386 2.92926,4.02314 5.23127,9.24764 6.84623,15.85839 1.61495,6.61075 2.56879,14.62938 3.00123,24.4205 0.20157,4.56444 0.2851,9.15536 0.25024,13.72724 -0.007,0.68741 -0.0178,1.37424 -0.0321,2.06027 -0.19793,10.17245 -1.03087,20.07599 -2.68821,29.05176 -0.72559,3.92949 -1.59204,7.59007 -2.59904,10.9522 -2.53413,8.38034 -5.97371,14.70912 -9.99547,19.20793 -3.57123,3.99697 -7.24678,6.12635 -10.56062,6.78849 -3.3139,0.66212 -7.01552,-0.049 -10.98599,-2.10075 -3.06813,-1.58543 -6.02975,-3.2683 -8.88924,-5.03496 -2.85953,-1.76666 -5.70707,-3.66896 -8.54976,-5.70608 0,0 0,0 0,0 z m 24.51479,-11.73735 c 0.66567,0.21702 1.33072,0.4318 1.99517,0.64438 1.31308,-1.84494 2.51238,-3.9738 3.57889,-6.39193 1.89146,-4.30781 3.35954,-9.49706 4.38509,-15.43522 1.06299,-6.15508 1.60495,-12.8071 1.70616,-19.65399 0.01,-0.61522 0.0154,-1.23169 0.017,-1.8492 7.5e-4,-2.80129 -0.0684,-5.62151 -0.2054,-8.4435 -0.48605,-10.01301 -1.62658,-16.85158 -3.34858,-21.0392 -1.72206,-4.18744 -3.97521,-5.78114 -6.6082,-5.03136 -0.42318,0.12061 -0.87091,0.34496 -1.34399,0.67161 -0.47312,0.32683 -0.9716,0.75598 -1.49707,1.28576 0.0746,2.85042 0.15175,5.6092 0.26875,8.28644 0.11694,2.67742 0.25537,5.35919 0.42945,8.05501 0.18917,2.93016 0.60698,8.4043 1.1333,16.88732 0.0331,0.5521 0.066,1.11695 0.0985,1.69463 0.22189,3.92835 0.44877,8.44034 0.57444,13.53512 0.19363,7.64498 0.0403,14.30213 -0.3995,19.8212 -0.21157,2.57473 -0.48263,4.89274 -0.78404,6.96293 0,0 0,0 0,0 z"
         id="path3072" />
      <path
         d="m 299.9885,940.93795 c 0.38086,0.0682 0.7616,0.13597 1.14224,0.20328 1.4287,0.2537 2.85578,0.50061 4.28137,0.7408 1.12933,0.18998 2.25771,0.3759 3.38515,0.55778 0.0166,-1.60012 0.0234,-3.23416 0.0199,-4.90154 -0.0611,-10.17432 -0.48307,-21.39954 -1.14895,-33.09867 -0.25571,-4.49221 -0.54606,-9.03791 -0.86365,-13.60112 -0.0182,-0.26197 -0.0365,-0.52394 -0.055,-0.78591 -0.0361,-0.50999 -0.0728,-1.01997 -0.11014,-1.52989 -0.63813,-8.31387 -1.31669,-16.58005 -2.07993,-24.71709 -0.0417,8.13407 -0.19479,16.41039 -0.42301,24.7597 -0.0231,0.76555 -0.0479,1.53144 -0.0745,2.29751 -0.13713,4.13819 -0.30512,8.26804 -0.51169,12.36287 -0.30716,6.08875 -0.69506,12.09105 -1.19912,17.91597 -0.45099,5.20917 -0.99537,10.2761 -1.65933,15.14176 -0.22097,1.57839 -0.45529,3.13017 -0.70334,4.65455 0,0 0,0 0,0 z m -27.59376,25.89389 c 3.06015,-4.97652 5.48315,-10.3029 7.47321,-15.8968 1.99007,-5.5939 3.54582,-11.45343 4.80503,-17.46512 0,0 0,0 0,0 1.48142,-7.18529 2.561,-14.45376 3.42817,-21.584 0.86718,-7.13025 1.52093,-14.12195 2.0567,-20.84057 0.0597,-0.72922 0.1173,-1.45481 0.1728,-2.17668 0.23594,-3.16969 0.45014,-6.26433 0.64548,-9.28132 0.42854,-6.61874 0.77603,-12.89687 1.00393,-18.87184 0.2279,-5.97497 0.33463,-11.64876 0.2091,-17.13105 -0.25105,-10.96458 -1.40804,-21.15313 -4.87365,-31.86031 1.9792,-0.62002 3.96153,-1.22608 5.94747,-1.81755 1.50555,-0.44832 3.01332,-0.88808 4.52335,-1.31897 3.20711,-0.91545 6.42433,-1.79063 9.65152,-2.62195 2.47151,6.84734 4.21386,13.25464 5.5928,19.58186 1.37894,6.32723 2.393,12.57428 3.26972,18.98576 0.87672,6.41147 1.61462,12.98739 2.32517,19.85756 0.71055,6.87018 1.39229,14.03471 2.06267,21.50771 0.0722,0.80532 0.14427,1.61411 0.21606,2.42631 0,0 0,0 0,0 0.0682,0.80393 0.13515,1.61104 0.20077,2.42123 0.63712,7.8582 1.22341,15.96277 1.70092,24.15986 0.4775,8.19708 0.84465,16.48589 1.0124,24.63185 0.23637,14.15432 -0.18901,27.44417 -1.5599,39.05358 -5.74206,0.16521 -11.5366,0.14435 -17.36803,-0.0756 0.87262,-3.86113 1.56458,-7.92165 2.10181,-12.15273 -1.75102,-0.35727 -3.50134,-0.72835 -5.25089,-1.11363 -1.46446,-0.32272 -2.92842,-0.65547 -4.39195,-0.99852 -0.95655,-0.22368 -1.9129,-0.45165 -2.86908,-0.68399 -1.58243,4.55507 -3.42015,8.85701 -5.58305,12.8795 -5.55121,-3.05434 -11.03447,-6.25846 -16.50253,-9.61457 z"
         id="path3074" />
      <path
         d="m 349.70207,878.21923 c 2.10675,-2.8548 3.6576,-6.88516 4.6622,-11.9545 1.00456,-5.06913 1.46968,-11.24614 1.34252,-18.38213 -0.0923,-5.17535 -0.65131,-9.3242 -1.6886,-12.51903 -1.03732,-3.19454 -2.28671,-4.71701 -3.68965,-4.59101 -0.56997,0.0514 -1.04071,0.34366 -1.41168,0.87408 -0.37101,0.5307 -0.62407,1.22144 -0.76143,2.07231 0.32676,4.84907 0.54345,9.10704 0.71102,12.79226 0.16757,3.68521 0.28305,6.79214 0.36471,9.28576 0.16329,4.98744 0.27321,9.73673 0.34451,14.21815 0.0429,2.69722 0.0849,5.4316 0.1264,8.20411 z m -26.32359,104.92012 c 2.24284,-5.65098 4.08089,-12.04668 5.56447,-19.17379 1.48357,-7.12711 2.61275,-14.98678 3.42902,-23.47215 0.20577,-2.21945 0.39131,-4.4718 0.55821,-6.75188 0.99002,-13.52557 1.34928,-28.24377 1.33823,-43.03576 3.1e-4,-0.83444 -0.001,-1.66864 -0.005,-2.50245 -0.0422,-5.74206 -0.12681,-11.45555 -0.25411,-17.11101 -0.2763,-12.27422 -0.77544,-23.2142 -1.83063,-33.46293 -1.05519,-10.24848 -2.69895,-19.97184 -5.69047,-30.12852 2.1988,-1.35343 4.5048,-3.25218 6.92699,-5.76812 2.42223,-2.51559 4.88152,-5.54693 7.3889,-9.21206 0.69971,1.98206 1.5595,4.80532 2.46181,8.34875 0.38103,1.48304 0.66639,2.61691 0.87699,3.42239 1.20791,-2.94846 2.47802,-5.23484 3.84408,-6.75582 1.36606,-1.52058 3.00099,-2.43257 4.89064,-2.67883 2.30149,-0.2996 4.61305,0.77543 6.78804,3.15058 2.17499,2.37514 4.20424,6.03435 5.96053,10.79024 0.79502,2.15297 1.48636,4.42008 2.07892,6.79891 1.01148,4.06471 1.7342,8.45189 2.20447,13.19991 0.47027,4.74802 0.68885,9.85768 0.69582,15.4293 0.0102,8.23065 -0.48232,15.94993 -1.43474,23.15771 -0.26953,2.03967 -0.57666,4.03662 -0.92177,5.98771 0,0 0,0 0,0 -0.87654,4.9424 -1.9977,9.59056 -3.37592,13.88188 0.0279,0.27366 0.0559,0.54781 0.0841,0.82246 0.0859,0.86733 0.17201,1.73943 0.25826,2.61626 1.00245,10.20549 2.12498,20.99772 3.33761,32.07919 0.45571,4.17316 0.92431,8.38409 1.40542,12.60472 0.29052,2.54878 0.58565,5.09873 0.88564,7.64249 1.00392,8.80413 2.0407,17.40173 3.20897,25.56591 0.7125,4.98595 1.47583,9.81017 2.33167,14.42475 -0.90396,0.64904 -1.83275,1.26778 -2.7866,1.85633 -2.04931,1.2646 -4.21421,2.38997 -6.49412,3.37798 -0.14817,0.0642 -0.29693,0.12798 -0.44628,0.19131 -3.22033,1.36387 -6.71533,2.52412 -10.48328,3.47033 10e-4,-6.99687 -0.0827,-14.74625 -0.30332,-23.07601 -0.22068,-8.32976 -0.57741,-17.23824 -1.08857,-26.49507 -0.72482,-12.28413 -1.68127,-24.88356 -2.7538,-37.10387 -0.64882,1.00986 -1.29937,2.01881 -1.9519,3.0263 -2.8e-4,1.16296 -0.002,2.32822 -0.005,3.49533 -0.0115,4.45959 -0.0933,9.23338 -0.26752,14.28551 -0.17418,5.05212 -0.44022,10.38391 -0.83584,15.91437 -0.0651,0.86825 -0.1336,1.73991 -0.20571,2.61458 -0.49687,6.02726 -1.16976,12.27099 -2.09257,18.55433 -0.92281,6.28334 -2.09371,12.60555 -3.63361,18.73332 -0.42138,-0.0534 -0.84269,-0.10758 -1.26391,-0.16252 -1.87211,-0.24416 -4.21769,-0.22002 -7.06689,0.0257 -2.84922,0.24571 -6.59636,0.7705 -11.32733,1.42227 0,0 0,0 0,0 z"
         id="path3076" />
      <path
         d="m 393.43042,986.98606 c -0.9803,-6.58294 -1.76455,-13.63398 -2.47134,-21.00635 -0.7068,-7.37237 -1.33555,-15.06492 -1.95888,-22.9184 0,0 0,0 0,0 -0.74367,-8.94063 -1.45927,-17.94305 -2.16578,-26.74089 -0.70652,-8.79783 -1.40249,-17.39196 -2.08717,-25.64309 -0.0731,-0.88104 -0.14673,-1.7577 -0.22102,-2.62992 -0.0943,-1.06526 -0.1879,-2.12367 -0.28084,-3.1752 -0.6983,-7.9009 -1.36092,-15.46988 -1.9961,-22.74353 -0.63519,-7.27365 -1.24213,-14.25296 -1.85911,-21.08554 -0.61698,-6.83259 -1.24317,-13.51945 -1.95908,-20.3043 -0.71591,-6.78485 -1.52074,-13.6687 -2.54936,-20.97628 3.92563,-0.73305 7.4527,-1.47304 10.58125,-2.27462 3.12852,-0.80121 6.02848,-1.79364 8.71797,-3.01515 -0.0316,8.31747 -0.0684,16.15061 -0.0386,23.92526 0.0298,7.77464 0.12695,15.49574 0.34198,23.54741 0.1872,7.01075 0.46419,14.25217 0.8462,21.89742 0.38201,7.64525 0.86859,15.69746 1.46266,24.20545 0.0576,0.86587 0.11534,1.73618 0.17306,2.61087 0,0 0,10e-6 0,10e-6 0.1136,1.71456 0.23018,3.44376 0.34978,5.18678 0.0755,-1.71887 0.15253,-3.44862 0.23139,-5.18767 0.0408,-0.86799 0.0813,-1.7378 0.12157,-2.60925 0.28804,-6.60226 0.62124,-13.28645 1.02595,-20.00599 0.4047,-6.71955 0.88074,-13.46994 1.46115,-20.3054 0.6938,-8.17095 1.53347,-16.37706 2.58718,-25.04873 0.52686,-4.33584 1.10757,-8.79444 1.75353,-13.47706 0.64597,-4.68262 1.35712,-9.58872 2.14766,-14.86068 1.94429,1.56565 3.74553,2.75581 5.43426,3.59064 1.68863,0.83518 3.35373,1.37029 5.01372,1.61593 0.33199,0.0492 0.66386,0.099 0.99561,0.1496 -0.761,9.003 -1.25286,17.22062 -1.51104,25.26526 -0.25818,8.04463 -0.28408,15.91592 -0.12353,23.99296 0.12336,6.20788 0.35986,12.52714 0.69164,19.03704 0.33178,6.50989 0.75851,13.21018 1.27139,20.10293 0.0597,0.84073 0.11972,1.68409 0.17993,2.52999 0.24271,3.39963 0.50118,6.83182 0.77605,10.28778 0.17101,-3.52328 0.35279,-6.95402 0.54419,-10.28777 0.0502,-0.84725 0.10029,-1.68766 0.15023,-2.52123 0.52006,-9.06233 1.14771,-17.28245 1.8757,-24.80245 0.72799,-7.52 1.55763,-14.34927 2.49339,-20.70574 1.14462,-7.77556 2.43834,-14.82969 3.86462,-21.48925 1.42629,-6.65955 2.98634,-12.92753 4.61065,-18.93189 3.34388,0.72663 6.67125,1.5233 9.98024,2.3876 1.97476,0.51499 3.94278,1.05334 5.90426,1.61394 0.0708,0.0202 0.14158,0.0405 0.21235,0.0608 -0.26141,0.62158 -0.51733,1.23882 -0.76801,1.852 -3.87401,9.47771 -6.53539,18.03704 -8.6232,26.48284 -2.08782,8.44581 -3.58728,16.76808 -4.78333,25.28775 -1.29406,9.23111 -2.22395,18.68703 -2.91613,28.33428 -0.0605,0.81478 -0.12022,1.6306 -0.17923,2.44732 -0.23687,3.3735 -0.44917,6.75371 -0.63787,10.12911 -0.76907,13.75576 -1.14415,27.14007 -1.06999,39.28145 0.0197,8.45942 0.2444,16.18472 0.73235,23.13204 0.48795,6.94732 1.24025,13.11968 2.27078,18.56693 -4.22582,1.8698 -8.52216,3.62758 -12.89986,5.26459 -0.79083,-2.81782 -1.81458,-6.68931 -2.90768,-11.86397 -1.09311,-5.17467 -2.24776,-11.66295 -3.37755,-19.72017 -0.59172,-4.21972 -1.16102,-8.74145 -1.71812,-13.566 -0.81015,-6.77718 -1.58656,-14.07385 -2.34095,-21.76288 -0.75439,-7.68903 -1.48789,-15.76771 -2.20034,-24.06868 -0.68253,15.59949 -1.08157,31.42502 -1.17427,46.24238 -0.001,0.13791 -0.003,0.2757 -0.004,0.41336 -0.14256,14.97718 -0.0312,28.59397 0.76928,40.28968 -4.83813,1.47146 -9.75368,2.80684 -14.74959,3.99666 z"
         id="path3078" />
      <path
         d="m 454.35339,979.21641 c -3.2185,-10.27403 -4.92436,-21.77404 -6.01244,-34.12281 -0.21582,-2.44939 -0.40636,-4.9313 -0.57699,-7.44158 -0.72903,-10.10973 -1.11364,-20.46187 -1.34264,-30.66759 -0.12648,-5.63641 -0.19916,-11.06608 -0.2358,-16.26402 -0.005,-0.78737 -0.009,-1.56891 -0.0138,-2.34462 -0.0657,-7.4654 -0.0324,-14.36951 0.0941,-20.7885 0.1265,-6.419 0.34835,-12.35705 0.68376,-17.94386 0.46556,-7.75466 1.15456,-14.90925 2.12562,-21.81543 0.97107,-6.90618 2.22756,-13.57025 3.75766,-20.25209 6.71422,0.86981 13.4396,2.04864 20.15998,3.52469 -3.27161,8.7887 -5.31232,16.95086 -6.67014,25.19943 -1.35782,8.24856 -2.03948,16.58821 -2.41869,25.47754 -0.36051,8.45068 -0.4511,17.40839 -0.36692,26.99038 0.004,0.72278 0.009,1.44884 0.0134,2.17814 0.0753,10.13677 0.29397,20.83349 0.90117,31.74323 0.18234,3.27641 0.41925,7.21052 0.80319,11.76701 0.36454,4.55198 0.8583,9.67897 1.68984,15.25116 0.83154,5.5722 1.98963,11.58989 3.933,17.84165 0.50427,1.68164 0.93796,2.91616 1.24894,3.73045 -3.22328,1.92548 -6.29524,3.53386 -9.21469,4.83901 -2.91949,1.30517 -5.77638,2.33572 -8.55846,3.0978 -10e-6,0 -2e-5,10e-6 -2e-5,10e-6 z"
         id="path3080" />
      <path
         d="m 478.76052,967.87708 c -2.94092,-10.71498 -4.07101,-22.5903 -4.51151,-35.32073 -0.22573,-5.8668 -0.29092,-11.83414 -0.2714,-17.82277 0.0257,-7.87596 0.19169,-15.77248 0.41499,-23.5477 0.0207,-0.6862 0.0412,-1.37107 0.0617,-2.05459 0.13668,-5.00292 0.3072,-9.92514 0.52629,-14.76402 0.2191,-4.83888 0.48608,-9.59395 0.85555,-14.29304 0.55128,-7.01133 1.22547,-13.50412 2.20643,-19.76069 0.98091,-6.25635 2.26873,-12.37269 4.08187,-18.6621 3.12665,0.41496 6.28671,0.65137 9.51089,0.7288 3.22403,0.0777 6.51136,-0.004 9.91355,-0.22769 -2.28689,6.05473 -3.50073,11.75922 -4.07363,17.35337 -0.57289,5.59415 -0.50462,11.07648 -0.10416,16.56172 0.40041,5.48532 1.14291,11.05925 2.0506,16.73737 0.90769,5.67812 1.9783,11.45984 3.14128,17.27406 0.0986,-5.83753 0.22592,-11.40188 0.42006,-16.71799 0.19414,-5.31612 0.4586,-10.38504 0.94332,-15.26787 0.96935,-9.76552 2.83249,-18.79327 7.41686,-27.80875 1.19218,0.79472 2.34231,1.51797 3.44887,2.1719 1.10636,0.65413 2.23543,1.27218 3.38628,1.85709 1.8588,0.94511 3.82232,1.79336 5.88905,2.56136 2.06651,0.76816 4.12009,1.45817 6.1625,2.07454 -5.80851,7.24606 -8.42554,15.3183 -9.87335,24.27741 -0.6945,4.29726 -1.12696,8.82837 -1.45239,13.60019 -0.32542,4.77182 -0.54927,9.78577 -0.71159,15.01938 0,0 0,0 0,0 -0.014,0.44461 -0.0275,0.89077 -0.0405,1.33845 -10e-4,0.036 -0.002,0.072 -0.003,0.10794 -0.12234,4.26461 -0.19138,8.53636 -0.14786,12.76731 0.0435,4.23096 0.20017,8.42026 0.5976,12.52318 0.0727,0.75029 0.15356,1.49771 0.24367,2.24205 0.89519,7.43506 2.65749,14.50389 6.63558,21.18922 -2.57931,1.75993 -4.96407,3.73243 -7.11675,5.9956 -2.15275,2.26324 -4.02765,4.85568 -5.52123,7.82572 -1.58204,-2.25823 -3.63216,-5.1959 -5.7585,-9.01276 -2.12633,-3.81686 -4.3108,-8.51747 -6.35958,-14.42396 -0.6425,-1.85224 -1.26727,-3.80316 -1.87797,-5.86032 -1.43339,-4.76662 -2.78336,-10.0592 -4.11164,-15.87434 -1.32827,-5.81514 -2.64195,-12.15274 -3.97111,-18.92872 -0.12243,-0.62063 -0.24545,-1.24459 -0.36908,-1.87177 0,0 0,-10e-6 0,-10e-6 -0.30008,-1.49737 -0.60025,-3.01277 -0.89978,-4.54506 -0.0852,1.51339 -0.15922,3.00905 -0.22258,4.48473 -0.0282,0.62645 -0.0552,1.24924 -0.0809,1.86821 -0.0982,2.44642 -0.16859,4.82881 -0.21197,7.1366 -0.0808,4.29492 -0.0677,8.06169 0.0154,11.2409 0.17825,6.82191 0.53875,13.11282 1.11917,18.75871 0.61323,6.18528 1.48292,11.5191 2.55191,16.05568 1.02386,4.34509 2.19273,7.81939 3.29039,10.51751 1.09766,2.69811 2.11482,4.62199 2.84901,5.83856 -3.15558,1.21554 -6.97156,2.616 -11.44927,4.07854 -4.47771,1.46254 -7.34175,2.24381 -8.59293,2.57878 0,0 0,0 0,0 z"
         id="path3082" />
    </g>
  </g>
</svg>
